<svg width="50" height="50" viewBox="0 0 50 50" fill="none" xmlns="http://www.w3.org/2000/svg">
<path fill-rule="evenodd" clip-rule="evenodd" d="M30.7905 7.62798C32.1005 8.06461 32.8083 9.48041 32.3718 10.7903L22.3717 40.7904C21.9351 42.1001 20.5193 42.8081 19.2094 42.3714C17.8996 41.9349 17.1917 40.5189 17.6283 39.2091L27.6283 9.20913C28.065 7.89928 29.4808 7.19138 30.7905 7.62798ZM14.2678 15.7319C15.2441 16.7082 15.2441 18.2912 14.2678 19.2675L8.53553 24.9996L14.2678 30.7319C15.2441 31.7081 15.2441 33.2911 14.2678 34.2674C13.2915 35.2439 11.7086 35.2439 10.7322 34.2674L3.23223 26.7674C2.25592 25.7911 2.25592 24.2082 3.23223 23.2319L10.7322 15.7319C11.7086 14.7556 13.2915 14.7556 14.2678 15.7319ZM35.7323 15.7319C36.7085 14.7556 38.2915 14.7556 39.2678 15.7319L46.7677 23.2319C47.744 24.2082 47.744 25.7911 46.7677 26.7674L39.2678 34.2674C38.2915 35.2439 36.7085 35.2439 35.7323 34.2674C34.756 33.2911 34.756 31.7081 35.7323 30.7319L41.4645 24.9996L35.7323 19.2675C34.756 18.2912 34.756 16.7082 35.7323 15.7319Z" fill="url(#paint0_linear_1482_26)"/>
<defs>
<linearGradient id="paint0_linear_1482_26" x1="47.4999" y1="27.3332" x2="0.896894" y2="26.9961" gradientUnits="userSpaceOnUse">
<stop stop-color="#FFA178"/>
<stop offset="1" stop-color="#72A7B0"/>
</linearGradient>
</defs>
</svg>
