<svg width="50" height="50" viewBox="0 0 50 50" fill="none" xmlns="http://www.w3.org/2000/svg">
<path d="M33.203 19.2819H24.5136V2.27246H33.203C37.8924 2.27246 41.7068 6.08685 41.7068 10.7762C41.7068 15.4656 37.8924 19.2819 33.203 19.2819ZM27.2996 16.4959H33.203C36.3564 16.4959 38.9208 13.9297 38.9208 10.7781C38.9208 7.62663 36.3545 5.06034 33.203 5.06034H27.2996V16.4959ZM27.2996 19.2819H18.6121C13.9227 19.2819 10.1083 15.4675 10.1083 10.7781C10.1083 6.08875 13.9227 2.27246 18.6121 2.27246H27.3015V19.2819H27.2996ZM18.6121 5.05845C15.4587 5.05845 12.8943 7.62473 12.8943 10.7762C12.8943 13.9278 15.4587 16.4959 18.6121 16.4959H24.5155V5.05845H18.6121ZM27.2996 33.5035H18.6121C13.9227 33.5035 10.1083 29.6891 10.1083 24.9997C10.1083 20.3103 13.9227 16.4959 18.6121 16.4959H27.3015V33.5035H27.2996ZM18.6121 19.2819C15.4587 19.2819 12.8943 21.8482 12.8943 24.9997C12.8943 28.1512 15.4606 30.7175 18.6121 30.7175H24.5155V19.2819H18.6121ZM18.6576 47.727C13.9436 47.727 10.1064 43.9126 10.1064 39.2232C10.1064 34.5338 13.9208 30.7194 18.6102 30.7194H27.2996V39.1304C27.2996 43.8709 23.4227 47.727 18.6576 47.727ZM18.6121 33.5035C17.0963 33.5055 15.6431 34.1086 14.5712 35.1804C13.4994 36.2523 12.8963 37.7055 12.8943 39.2213C12.8943 42.3747 15.4796 44.9391 18.6595 44.9391C21.8886 44.9391 24.5174 42.3331 24.5174 39.1285V33.5035H18.6121ZM33.203 33.5035H33.0174C28.328 33.5035 24.5136 29.6891 24.5136 24.9997C24.5136 20.3103 28.328 16.4959 33.0174 16.4959H33.203C37.8924 16.4959 41.7068 20.3103 41.7068 24.9997C41.7068 29.6891 37.8924 33.5035 33.203 33.5035ZM33.0193 19.2819C29.8659 19.2819 27.3015 21.8482 27.3015 24.9997C27.3015 28.1512 29.8678 30.7175 33.0193 30.7175H33.2049C36.3583 30.7175 38.9227 28.1512 38.9227 24.9997C38.9227 21.8482 36.3545 19.2819 33.203 19.2819H33.0193Z" fill="url(#paint0_linear_1482_23)"/>
<defs>
<linearGradient id="paint0_linear_1482_23" x1="41.7068" y1="28.0301" x2="8.97948" y2="27.9021" gradientUnits="userSpaceOnUse">
<stop stop-color="#FFA178"/>
<stop offset="1" stop-color="#72A7B0"/>
</linearGradient>
</defs>
</svg>
